<svg width="454" height="124" viewBox="0 0 454 124" fill="none" xmlns="http://www.w3.org/2000/svg">
<rect width="454" height="124" fill="black"/>
<path d="M135.01 82V46.502H142.236V75.9697H160.205V82H135.01ZM162.881 82V46.209H189.419V52.2637H170.107V60.1982H188.076V66.2285H170.107V75.9697H190.103V82H162.881ZM226.006 82H218.145L215.02 73.8701H200.713L197.759 82H190.093L204.033 46.209H211.675L226.006 82ZM212.7 67.8398L207.769 54.5586L202.935 67.8398H212.7ZM227.437 82V46.209H234.468L249.116 70.1104V46.209H255.83V82H248.579L234.15 58.6602V82H227.437Z" fill="#0C56E7"/>
<path d="M260.972 46.209H274.18C277.158 46.209 279.429 46.4368 280.991 46.8926C283.091 47.5111 284.889 48.6097 286.387 50.1885C287.884 51.7673 289.023 53.7041 289.805 55.999C290.586 58.2777 290.977 61.0934 290.977 64.4463C290.977 67.3923 290.61 69.9313 289.878 72.0635C288.983 74.6676 287.705 76.7754 286.045 78.3867C284.792 79.6074 283.099 80.5596 280.967 81.2432C279.372 81.7477 277.24 82 274.57 82H260.972V46.209ZM268.198 52.2637V75.9697H273.594C275.612 75.9697 277.069 75.8558 277.964 75.6279C279.136 75.335 280.104 74.8385 280.869 74.1387C281.65 73.4388 282.285 72.2913 282.773 70.6963C283.262 69.085 283.506 66.8958 283.506 64.1289C283.506 61.362 283.262 59.238 282.773 57.7568C282.285 56.2757 281.602 55.1201 280.723 54.29C279.844 53.46 278.729 52.8984 277.378 52.6055C276.369 52.3776 274.391 52.2637 271.445 52.2637H268.198ZM294.629 82V46.209H321.167V52.2637H301.855V60.1982H319.824V66.2285H301.855V75.9697H321.851V82H294.629ZM323.647 70.3545L330.679 69.6709C331.102 72.0309 331.956 73.7643 333.242 74.8711C334.544 75.9779 336.294 76.5312 338.491 76.5312C340.819 76.5312 342.568 76.043 343.74 75.0664C344.928 74.0736 345.522 72.918 345.522 71.5996C345.522 70.7533 345.27 70.0371 344.766 69.4512C344.277 68.849 343.415 68.3281 342.178 67.8887C341.331 67.5957 339.403 67.0749 336.392 66.3262C332.518 65.3659 329.8 64.1859 328.237 62.7861C326.04 60.8167 324.941 58.416 324.941 55.584C324.941 53.7611 325.454 52.0602 326.479 50.4814C327.521 48.8864 329.01 47.6738 330.947 46.8438C332.9 46.0137 335.252 45.5986 338.003 45.5986C342.495 45.5986 345.872 46.5833 348.135 48.5527C350.413 50.5221 351.61 53.1507 351.724 56.4385L344.497 56.7559C344.188 54.9167 343.521 53.5983 342.495 52.8008C341.486 51.987 339.964 51.5801 337.93 51.5801C335.83 51.5801 334.186 52.0114 332.998 52.874C332.233 53.4274 331.851 54.168 331.851 55.0957C331.851 55.9421 332.209 56.6663 332.925 57.2686C333.836 58.0335 336.05 58.8311 339.565 59.6611C343.081 60.4912 345.677 61.3538 347.354 62.249C349.046 63.1279 350.365 64.3405 351.309 65.8867C352.269 67.4167 352.749 69.3128 352.749 71.5752C352.749 73.626 352.179 75.5465 351.04 77.3369C349.901 79.1273 348.289 80.4619 346.206 81.3408C344.123 82.2035 341.527 82.6348 338.418 82.6348C333.893 82.6348 330.418 81.5931 327.993 79.5098C325.568 77.4102 324.119 74.3584 323.647 70.3545ZM356.426 82V46.209H363.652V62.1025L378.252 46.209H387.969L374.492 60.1494L388.701 82H379.351L369.512 65.2031L363.652 71.1846V82H356.426Z" fill="white"/>
<path d="M92.3148 78.0125L98.087 74.6784C98.8624 74.2369 99.7492 74.0301 100.64 74.0831C101.53 74.1361 102.386 74.4465 103.104 74.9767L108.058 78.6791C108.78 79.2254 109.324 79.9733 109.622 80.8287C109.92 81.684 109.958 82.6085 109.732 83.4856L107.008 93.6503C106.844 94.2442 106.561 94.7988 106.177 95.2807C105.793 95.7625 105.316 96.1616 104.773 96.454C104.231 96.7463 103.635 96.9259 103.022 96.9819C102.408 97.0379 101.79 96.9691 101.204 96.7797C62.9774 83.944 63.958 48.9085 65.8518 35.9067C65.9488 35.2693 66.1796 34.6597 66.529 34.1178C66.8785 33.576 67.3386 33.1143 67.8791 32.7631C68.4197 32.4119 69.0285 32.1792 69.6654 32.0802C70.3022 31.9812 70.9528 32.0183 71.5743 32.1889L81.3895 34.8189C82.2647 35.0562 83.0488 35.55 83.6411 36.2367C84.2333 36.9235 84.6066 37.7719 84.7129 38.6727L85.4409 44.8162C85.5524 45.7025 85.4004 46.6021 85.0038 47.4027C84.6073 48.2032 83.9837 48.8692 83.2111 49.3173L77.4389 52.6515C77.4389 52.6515 75.3049 71.1015 92.3148 78.0125Z" fill="#0C56E7"/>
<path d="M30.4761 93.7328L55.0805 49.4449C56.5839 46.7388 60.703 47.8062 60.703 50.9018V62.4002C60.703 62.8659 60.5946 63.3253 60.3863 63.7418L50.3872 83.7399C49.3899 85.7346 50.8403 88.0816 53.0705 88.0816H77.4789C78.166 88.0816 78.8324 88.3175 79.3665 88.7498L84.4413 92.858C86.6387 94.6369 85.3809 98.1898 82.5537 98.1898H33.0985C30.8111 98.1898 29.3652 95.7324 30.4761 93.7328Z" fill="#0C56E7"/>
</svg>
